
<svg version="1.1" id="Capa_1" xmlns="http://www.w3.org/2000/svg" xmlns:xlink="http://www.w3.org/1999/xlink" x="0px" y="0px"
	 viewBox="0 0 185 59.3" style="enable-background:new 0 0 185 59.3;" xml:space="preserve">

<g>
	<path d="M169.7,55.9c-7.9-0.3-23.9-0.2-32.2-0.3c-35.7-0.4-73.6,1.5-108.7-0.9c-2.5-0.2-5.9-0.4-2.5-1.8c5.6-2.4-1.5-2.8-7.8-3.2
		c-4-0.3-8-0.5-7.4-2.9c0.3-1.4,1.2-0.9,1.2-2.6c0-0.4-0.1-1.3,0.1-2.1c0.3-1.7,0-1.4-0.8-0.9c-5.7,3.3-5-1.1-4.1-5.2
		c0.6-2.6,1.5-6.3,2.6-9.4c0.4-1.1,0.5-2.3-1.1-2.8c-0.9-0.3-3.5-0.4-4.2,0.3C3.5,25,2,30.1,1.1,34.9c-1.2,6.4-3,11,4,13.8
		c5.7,2.3,11.8,2.2,11.8,3.9c0,1.3-4,1.5-6.1,2.1c-1.8,0.5-6.6,1.8-3.5,3.5c2.9,1.6,13.9,1.2,17.6,1.1c43.2-0.4,86.3,0,129.4-0.2
		C181.6,58.9,176.1,56.1,169.7,55.9L169.7,55.9z"/>
	<path d="M109.7,22.6c-1.6-0.1-1.3,0.2-1.9,2.2c-0.6,1.9-3,10.4-3.4,11.6c-1,3.5,0.1,5.9,1.7,5.9c0.6,0,0.5,0.1,0.9,1.4
		c0.2,0.5,0.4,1,0.6,1.5c0.4,0.8,0.5,1.1-0.2,1.4c-5,1.9-11.6-0.9-10.3-8l3.6-11.7c0.3-1,0.4-1.9,0.9-3.5c0.3-1-1.2-0.7-2.5-0.7
		c-0.9,0-1.6,0.3-2.2-0.5c-0.2-0.3-0.8-2.5,0.1-4.1c0.8-1.5,4.8-0.9,6.7-0.7c0.6-1.4,0.9-2.6,1.6-4.1c0.5-1.2,1.2-1.7,3.1-1.9
		c1.3-0.1,2.5,0,3.1,0.2c3.4,1,1.3,2.4,0.5,3.2c-0.4,0.4-0.9,1.4-1.5,2.8l3.5,0c0.9,0,1.7-0.3,2.2,0.5c0.2,0.3,0.6,1.8,0.2,3.3
		C115.7,23.6,112.1,22.8,109.7,22.6L109.7,22.6z"/>
	<path d="M182.2,37.6c-0.8,0.4-1.6,0.8-2.4,1.1c-0.8,0.3-1.5,0.7-2.2,1c-0.7,0.3-1.4,0.7-2,1.1c0.1-1,0.2-2,0.2-2.7
		c0-0.8,0-1.4-0.1-2c-0.1-0.6-0.1-1.1-0.2-1.6c-0.1-0.5-0.2-0.9-0.2-1.3c-0.1-0.4-0.1-0.8-0.2-1.2c0-0.4,0-0.9,0-1.4
		c0.1-0.2,0.3-0.5,0.7-0.8c0.4-0.4,0.8-0.8,1.2-1.2c0.4-0.4,0.8-0.9,1.2-1.4c0.4-0.5,0.6-0.9,0.6-1.3c0-0.2,0-0.4,0-0.7
		c0-0.3-0.1-0.5-0.3-0.8c-0.2-0.2-0.5-0.5-0.9-0.6c-0.4-0.2-1-0.3-1.8-0.3c-0.5,0-0.9,0.1-1.3,0.2c-0.4,0.1-0.8,0.3-1.1,0.5
		c-0.3,0.2-0.7,0.5-0.9,0.7c-0.3,0.3-0.6,0.6-0.8,0.9c-1.2,1.3-2.1,2.4-2.9,3.3c-0.7,0.9-1.4,1.6-1.9,2.2c-0.5,0.6-1,1.1-1.3,1.6
		c-0.4,0.4-0.8,0.9-1.2,1.3c-0.5,0.4-1,0.9-1.6,1.4c-0.6,0.5-1.4,1.2-2.4,2c-0.1,0.1-0.4,0.3-0.6,0.5c-0.3,0.2-0.6,0.4-0.9,0.7
		c0,0-0.1,0.1-0.1,0.1c-2.2,1.5-4.8,3-7.2,3c-1.6,0-2.3-0.9-2.9-2.2c1.5-0.4,2.8-0.9,4.1-1.6c1.3-0.7,2.4-1.5,3.4-2.4
		c1-0.9,1.8-1.9,2.4-2.9c0.6-1,1-2,1.1-3c0.1-0.9,0-1.8-0.2-2.5c-0.3-0.8-0.6-1.4-1.2-1.9c-0.5-0.5-1.2-0.9-1.9-1.2
		c-0.8-0.3-1.6-0.4-2.5-0.4c-1.1,0-2.2,0.2-3.1,0.6c-1,0.4-1.9,0.9-2.7,1.6c-0.8,0.7-1.5,1.5-2.2,2.4C145,29,144.5,30,144,31
		c-0.5,1-0.8,2-1.1,3c-0.3,1-0.5,2-0.6,2.9c-0.1,0.8-0.1,1.5,0,2.2c-0.3,0.2-0.6,0.4-0.9,0.5c-0.5,0.3-1,0.5-1.5,0.8
		c-0.5,0.2-0.9,0.4-1.3,0.5c-0.4,0.1-0.8,0.2-1.1,0.2c-0.1,0-0.3-0.1-0.4-0.3c-0.1-0.2-0.2-0.4-0.3-0.8c-0.1-0.3-0.2-0.7-0.2-1.1
		c0-0.4-0.1-0.8,0-1.2l0-0.3c0.1-0.3,0.2-0.7,0.3-1c0.1-0.3,0.2-0.7,0.3-1c0.1-0.3,0.2-0.6,0.3-0.8s0.2-0.5,0.3-0.6
		c0.9-1.5,1.9-3,2.9-4.5c1-1.5,2-3.1,3-4.7c1-1.6,2-3.2,2.9-4.8c1-1.6,1.8-3.2,2.6-4.8c0.8-1.6,1.4-3.2,1.9-4.8
		c0.5-1.6,0.8-3.2,1-4.7c0.1-0.7,0.1-1.4,0-2c0-0.7-0.2-1.3-0.4-1.8c-0.2-0.5-0.5-0.9-1-1.3c-0.4-0.3-1-0.5-1.7-0.5
		c-1,0-2.1,0.3-3.1,0.9C145,1.6,144,2.4,143,3.5c-1,1.1-2,2.4-3,3.8c-1,1.5-1.9,3-2.8,4.7c-0.9,1.7-1.7,3.4-2.5,5.3
		c-0.7,1.8-1.4,3.7-2,5.5c-0.6,1.8-1.1,3.6-1.5,5.3c-0.4,1.7-0.7,3.3-0.8,4.7c-0.2,1.9-0.2,3.7-0.1,5.4c0,0.6,0.1,1.1,0.2,1.7
		c-0.3,0.3-0.7,0.5-1,0.7c-0.4,0.3-0.8,0.5-1.2,0.7c-0.4,0.2-0.8,0.3-1.1,0.3c-0.5,0-0.7-0.2-0.8-0.7c-0.1-0.4-0.1-1,0-1.8
		c0.1-0.9,0.3-1.9,0.5-2.9c0.3-1,0.5-2,0.8-3c0.3-1,0.6-2,0.8-2.9c0.3-1,0.4-1.8,0.5-2.6c0.1-0.5,0.1-0.9,0-1.2
		c-0.1-0.3-0.2-0.5-0.3-0.7c-0.2-0.2-0.3-0.3-0.5-0.3c-0.2,0-0.4-0.1-0.7-0.1c-0.2,0-0.4,0-0.6,0c-0.2,0-0.4,0-0.6,0
		c-0.2,0-0.4,0-0.6,0c-0.2,0-0.4-0.1-0.6-0.2c-0.2-0.1-0.3-0.2-0.5-0.4c-0.1-0.2-0.2-0.4-0.3-0.6c-0.1-0.2-0.3-0.4-0.5-0.5
		c-0.2-0.2-0.5-0.2-0.9-0.2c-1.1,0-2.3,0.2-3.4,0.7c-1.1,0.5-2.2,1.1-3.3,2c-1.1,0.8-2.1,1.8-3,2.9c-0.9,1.1-1.8,2.3-2.5,3.5
		c-0.7,1.2-1.3,2.5-1.8,3.8c-0.5,1.3-0.8,2.5-0.9,3.8c-0.1,1.1,0,2,0.2,2.9c0.3,0.9,0.6,1.6,1.2,2.2c0.5,0.6,1.1,1.1,1.8,1.4
		c0.7,0.3,1.5,0.5,2.2,0.5c0.7,0,1.5-0.1,2.2-0.4c0.8-0.2,1.5-0.6,2.2-0.9c0.7-0.4,1.4-0.8,2-1.3c0.6-0.5,1.1-0.9,1.6-1.4
		c0.4,1.3,0.9,2.3,1.6,3s1.5,1,2.6,1c0.9,0,1.8-0.2,2.8-0.7c0.9-0.4,1.8-1,2.7-1.6c0.2-0.1,0.4-0.3,0.6-0.4c0.3,0.6,0.6,1,1,1.4
		c0.7,0.8,1.5,1.2,2.3,1.2c0.6,0,1.2-0.1,1.8-0.2c0.7-0.2,1.3-0.4,2-0.6c0.7-0.3,1.4-0.6,2.1-0.9c0.7-0.3,1.4-0.7,2-1
		c0.2-0.1,0.4-0.2,0.7-0.4c0,0,0,0,0,0.1c0.7,0.9,1.6,1.7,2.7,2.2c1.1,0.6,2.4,0.8,4,0.8c2.8,0,5.1-1.1,7.6-2.5
		c0.9-0.5,1.7-1,2.4-1.4l0,0c0.1,0.6,0.2,1.1,0.4,1.5c0.3,0.6,0.8,1.1,1.4,1.5c0.6,0.4,1.3,0.7,2.1,0.8c0.8,0.2,1.7,0.3,2.7,0.3
		c1.3,0,2.8-0.2,4.3-0.5c1.5-0.3,3-0.7,4.6-1.2c1.5-0.5,3-1.1,4.4-1.8C184.5,41.8,187.4,34.9,182.2,37.6z M138.1,22.6
		c0.4-1.7,0.9-3.3,1.4-4.8c0.5-1.6,1.1-3,1.8-4.4c0.6-1.4,1.3-2.6,1.9-3.7c0.7-1,1.3-1.9,1.9-2.5c0.6-0.6,1.2-0.9,1.6-0.9
		c0.1,0,0.2,0.2,0.2,0.5c0,0.3,0,0.7-0.1,1.2c-0.3,1.5-0.8,3.1-1.5,4.8c-0.7,1.7-1.5,3.4-2.4,5.2c-0.9,1.7-1.9,3.4-2.9,5.1
		c-1,1.6-1.9,3.1-2.8,4.4C137.4,25.9,137.7,24.3,138.1,22.6z M121.1,35.5c-0.1,0.5-0.3,1.2-0.6,2c-0.3,0.8-0.7,1.5-1.1,2.3
		c-0.4,0.7-0.9,1.4-1.5,1.9c-0.5,0.5-1.1,0.8-1.7,0.8c-0.4,0-0.7-0.1-0.9-0.3c-0.2-0.2-0.4-0.4-0.5-0.7c-0.1-0.3-0.2-0.6-0.2-1
		c0-0.4,0-0.8,0-1.2c0.1-0.7,0.2-1.5,0.5-2.3c0.3-0.8,0.6-1.6,1-2.4c0.4-0.8,0.9-1.6,1.5-2.3c0.6-0.7,1.1-1.4,1.8-2
		c0.6-0.6,1.3-1,1.9-1.4s1.3-0.5,2-0.5L121.1,35.5z M148.6,34.3c0.1-0.5,0.2-1,0.4-1.6c0.2-0.5,0.4-1.1,0.6-1.6c0.3-0.5,0.6-1,1-1.4
		c0.4-0.4,0.8-0.8,1.4-1c0.5-0.3,1.1-0.4,1.8-0.4c0.4,0,0.7,0.2,0.9,0.7c0.2,0.5,0.3,1.1,0.2,1.8c-0.1,0.5-0.3,1.1-0.8,1.6
		c-0.5,0.6-1,1.1-1.7,1.5c-0.6,0.5-1.3,0.9-2.1,1.2c-0.7,0.3-1.4,0.5-2,0.5C148.5,35.2,148.5,34.8,148.6,34.3z M170.3,39.3
		c-0.1,0.5-0.2,1-0.3,1.5c-0.1,0.5-0.4,0.9-0.6,1.2c-0.3,0.4-0.6,0.6-1.1,0.8c-0.4,0.2-1,0.3-1.6,0.3c-0.5,0-1-0.1-1.4-0.4
		c-0.4-0.2-0.7-0.5-1-0.8c-0.3-0.3-0.5-0.6-0.7-0.8c-0.1-0.1-0.2-0.2-0.3-0.3c0.4-0.5,0.8-0.9,1-1.3l5.6-5.1
		c0.1,0.3,0.1,0.6,0.2,0.9c0.1,0.4,0.1,0.8,0.2,1.2c0,0.4,0.1,0.9,0.1,1.3C170.4,38.4,170.4,38.9,170.3,39.3z"/>
	<path d="M58.5,37c-0.4,0.4-0.8,0.9-1.2,1.3c-0.4,0.5-0.9,0.9-1.3,1.3c-0.5,0.4-0.9,0.8-1.4,1.2c-0.4,0.4-0.9,0.7-1.3,0.9
		c-0.4,0.2-0.8,0.3-1.1,0.3c-0.6,0-1-0.1-1.3-0.4c-0.3-0.3-0.4-0.7-0.3-1.3c0.1-0.7,0.3-1.4,0.7-2.1c0.4-0.7,0.9-1.4,1.4-2.1
		c0.6-0.7,1.2-1.4,1.8-2.1s1.2-1.4,1.8-2.1c0.6-0.7,1-1.4,1.4-2.1c0.4-0.7,0.6-1.3,0.7-2c0.1-0.7,0-1.3-0.1-1.9
		c-0.1-0.6-0.3-1-0.6-1.4c-0.3-0.4-0.6-0.7-1-0.9c-0.4-0.2-0.8-0.3-1.3-0.3c-0.9,0-1.7,0.1-2.5,0.4c-0.8,0.3-1.4,0.6-2,0.9
		c-0.3,0.2-0.8,0.7-1.5,1.3c-0.6,0.6-1.3,1.4-2.1,2.2c-0.8,0.8-1.5,1.7-2.3,2.6c-0.8,0.9-1.5,1.7-2.2,2.5L42.4,33l3.4-4.4
		c0.2-0.3,0.5-0.8,1.1-1.7c0.5-0.8,1.2-1.9,1.9-3.1c0.7-1.2,1.5-2.6,2.3-4.1c0.8-1.5,1.5-3.1,2.2-4.7c0.7-1.6,1.3-3.2,1.8-4.8
		c0.5-1.6,0.8-3.1,1-4.5c0.1-0.8,0.1-1.5,0-2.2c-0.1-0.7-0.2-1.2-0.5-1.7c-0.3-0.5-0.7-0.9-1.2-1.1c-0.5-0.3-1.2-0.4-2-0.4
		c-1.1,0-2.1,0.2-3,0.7c-0.9,0.4-1.8,1-2.7,1.8c-0.8,0.8-1.6,1.6-2.3,2.7c-0.7,1-1.4,2.1-2,3.2c-0.6,1.1-1.1,2.3-1.6,3.5
		c-0.5,1.2-0.9,2.3-1.3,3.4c-0.4,1.1-0.7,2.1-1,3.1c-0.3,1-0.5,1.8-0.7,2.4c-0.5,1.9-1,3.9-1.4,5.9c-0.4,2-0.8,3.9-1.1,5.8
		c-0.3,1.8-0.6,3.5-0.8,5.1c-0.1,1-0.3,2-0.4,2.7c-0.2,0.1-0.4,0.2-0.5,0.3c-0.4,0.2-0.8,0.4-1.1,0.6c-0.3,0.2-0.6,0.2-0.9,0.2
		c-0.5,0-0.9-0.3-1.1-1c-0.2-0.7-0.2-1.5-0.1-2.5c0.1-0.6,0.2-1.3,0.3-2c0.1-0.7,0.3-1.4,0.5-2.2c0.2-0.7,0.4-1.5,0.6-2.2
		c0.2-0.7,0.4-1.3,0.6-1.9c0.2-0.6,0.3-1.1,0.4-1.5c0.1-0.4,0.2-0.7,0.2-0.9c0.1-1.2,0-2.2-0.4-2.8c-0.4-0.7-1-1-1.8-1
		c-0.8,0-1.6,0.2-2.3,0.5c-0.7,0.3-1.4,0.9-2,1.8c-0.1,0.2-0.3,0.5-0.6,0.9c-0.3,0.4-0.6,0.9-0.9,1.4c-0.3,0.5-0.7,1.1-1.1,1.7
		c-0.4,0.6-0.7,1.1-1.1,1.7c-0.3,0.5-0.6,1-0.9,1.4c-0.3,0.4-0.4,0.7-0.5,0.9H21c0-0.1,0.1-0.3,0.1-0.7c0.1-0.3,0.2-0.7,0.3-1.2
		c0.1-0.5,0.2-0.9,0.4-1.5c0.1-0.5,0.3-1,0.4-1.5c0.1-0.5,0.2-1,0.3-1.4c0.1-0.4,0.1-0.8,0.2-1c0.1-0.9,0-1.6-0.3-2.2
		c-0.3-0.5-0.9-0.8-1.8-0.8c-0.9,0-1.6,0.3-2.2,0.8c-0.6,0.5-1,1.1-1.2,1.9c-0.3,1-0.7,2.1-1.1,3.5c-0.4,1.4-0.7,2.8-1.1,4.2
		c-0.3,1.5-0.7,2.9-0.9,4.3c-0.3,1.4-0.5,2.7-0.6,3.7c-0.1,0.7-0.1,1.3-0.1,1.9c0,0.6,0.1,1.2,0.3,1.6c0.2,0.5,0.4,0.9,0.8,1.2
		c0.4,0.3,0.9,0.4,1.6,0.4c0.5,0,1-0.1,1.5-0.4c0.4-0.2,0.8-0.7,1.2-1.4l7.7-12.8H27c-0.3,1.3-0.6,2.5-0.9,3.7
		c-0.2,1.1-0.4,2.2-0.5,3.2c-0.3,2.5-0.1,4.4,0.3,5.7s1.2,2,2.1,2c0.9,0,1.8-0.1,2.6-0.4c0.8-0.3,1.7-0.6,2.5-1
		c0.3-0.2,0.7-0.3,1-0.5c0,0.1,0,0.1,0.1,0.2c0.2,0.5,0.4,0.9,0.8,1.2c0.4,0.3,0.9,0.5,1.6,0.5c0.5,0,1-0.1,1.4-0.4
		c0.4-0.3,0.9-0.7,1.3-1.4l8.5-12.7c0.6-0.9,1.2-1.5,1.6-1.9c0.5-0.4,0.9-0.5,1.1-0.5c0.2,0,0.4,0.1,0.5,0.3
		c0.1,0.2,0.1,0.5,0.1,0.8c0,0.2-0.1,0.4-0.2,0.5c-0.1,0.2-0.3,0.3-0.5,0.5c-0.2,0.2-0.4,0.4-0.7,0.6c-0.3,0.2-0.6,0.5-0.9,0.8
		c-0.8,0.9-1.5,1.8-2.1,2.7c-0.5,0.8-1,1.6-1.3,2.3c-0.3,0.7-0.6,1.3-0.7,1.9c-0.1,0.5-0.2,1-0.3,1.4c-0.1,0.6,0,1.3,0,1.9
		c0.1,0.6,0.3,1.1,0.7,1.6c0.4,0.5,0.9,0.9,1.6,1.1c0.7,0.3,1.7,0.4,2.8,0.4c0.9,0,1.8-0.1,2.8-0.4c1-0.3,2-0.6,2.9-1.1
		c1-0.5,1.9-1,2.7-1.6C62,41.2,60.2,35.2,58.5,37z M40.8,30.3c0.3-1.9,0.7-3.9,1.2-5.9c0.2-0.8,0.4-1.8,0.6-2.7
		c0.2-1,0.5-1.9,0.8-2.9c0.3-1,0.6-2,0.9-3c0.3-1,0.7-2,1-2.9c0.5-1.1,1-2,1.4-2.9c0.4-0.9,0.8-1.6,1.2-2.2c0.4-0.6,0.8-1.1,1.2-1.4
		C49.6,6,50,5.8,50.6,5.8c0.3,0,0.5,0.3,0.4,0.8C51,7,50.9,7.5,50.7,8c-0.2,0.5-0.4,1.1-0.7,1.7c-0.3,0.6-0.6,1.3-0.9,1.9
		c-0.3,0.7-0.6,1.3-0.9,1.9c-0.3,0.6-0.6,1.2-0.9,1.7c-0.3,0.5-0.5,1-0.6,1.3c-0.3,0.8-0.7,1.7-1.2,2.8c-0.5,1.1-1,2.3-1.5,3.5
		c-0.5,1.2-1.1,2.5-1.6,3.8C41.8,28,41.3,29.2,40.8,30.3z"/>
	<path d="M7.7,21.5c4.1,0.7,6.6-1.5,6.8-3.8c0.2-2.4-1.7-4.6-4.3-4.9C3.4,11.7,1.1,20.3,7.7,21.5z"/>
	<path class="st0" d="M93.4,32c-2.6-1.2-3.1-5.4-3.1-6.4c0-1.5-0.5-1.3-1-0.7L82.9,31c-0.6,0.5-0.8,0.6-0.7,1.2
		c0.3,1.4,1.6,4,3.5,4.7c-1.7,0.5-3.4-1.2-4.3-2.3L78,30.7c1.4-1.1,2.3-2.8,2.4-4.7c0.2-3.6-2.6-6.6-6.2-6.7
		c-3.6-0.2-6.6,2.6-6.7,6.2c-0.1,1.2,0.3,2.4,0.8,3.4c1.4,2.5,5.7,6.8,7.8,9.2l0,0l0,0c-2.4,2.2-6.2-0.1-5.7-3.3
		c0.2-1.2,0-1.1-0.4-1.7l-0.9-1c-0.5-0.6-1-1.4-2.1-0.1c-1.3,1.6-2.1,3.6-2.1,5.6c-0.1,5,3.9,9.2,8.9,9.3c3.4,0.1,5-1.3,7.2-3.2
		c1.9,2.2,2,3.1,4.4,3.1l3,0c1.8,0,2.9-0.6,1.3-2.6l-4-4.6l0.9-0.8l6.9-6C94.3,32.5,94.2,32.3,93.4,32z M72.5,27.6
		c-0.5-1.1,0.7-2.3,1.1-1.2c0.2,0.5,0.4,1,0.8,1.4c1.4,1.3,3.4,0.7,4.8-0.6C77.8,30.4,73.5,30.1,72.5,27.6z"/>
</g>
</svg>
